<svg xmlns="http://www.w3.org/2000/svg" xmlns:xlink="http://www.w3.org/1999/xlink" width="500" zoomAndPan="magnify" viewBox="0 0 375 374.999991" height="500" preserveAspectRatio="xMidYMid meet" version="1.0"><defs><g/><clipPath id="63297fce77"><rect x="0" width="141" y="0" height="82"/></clipPath></defs><rect x="-37.5" width="450" fill="#ffffff" y="-37.499999" height="449.999989" fill-opacity="1"/><rect x="-37.5" width="450" fill="#ffbd59" y="-37.499999" height="449.999989" fill-opacity="1"/><g transform="matrix(1, 0, 0, 1, 117, 146)"><g clip-path="url(#63297fce77)"><g fill="#000000" fill-opacity="1"><g transform="translate(10.282184, 63.864084)"><g><path d="M 17.953125 0.8125 C 14.671875 0.8125 11.410156 0.375 8.171875 -0.5 C 4.929688 -1.382812 2.1875 -2.632812 -0.0625 -4.25 L 4.1875 -12.625 C 5.988281 -11.3125 8.078125 -10.273438 10.453125 -9.515625 C 12.835938 -8.753906 15.25 -8.375 17.6875 -8.375 C 20.425781 -8.375 22.582031 -8.910156 24.15625 -9.984375 C 25.726562 -11.066406 26.515625 -12.550781 26.515625 -14.4375 C 26.515625 -16.238281 25.816406 -17.65625 24.421875 -18.6875 C 23.035156 -19.726562 20.789062 -20.25 17.6875 -20.25 L 12.6875 -20.25 L 12.6875 -27.46875 L 25.84375 -42.375 L 27.0625 -38.46875 L 2.296875 -38.46875 L 2.296875 -47.234375 L 35.359375 -47.234375 L 35.359375 -40.15625 L 22.265625 -25.234375 L 16.734375 -28.40625 L 19.90625 -28.40625 C 25.707031 -28.40625 30.09375 -27.097656 33.0625 -24.484375 C 36.03125 -21.878906 37.515625 -18.53125 37.515625 -14.4375 C 37.515625 -11.78125 36.816406 -9.296875 35.421875 -6.984375 C 34.035156 -4.671875 31.898438 -2.789062 29.015625 -1.34375 C 26.140625 0.09375 22.453125 0.8125 17.953125 0.8125 Z M 17.953125 0.8125 "/></g></g></g><g fill="#000000" fill-opacity="1"><g transform="translate(50.229537, 63.864084)"><g><path d="M 23.75 0.8125 C 19.4375 0.8125 15.691406 -0.0859375 12.515625 -1.890625 C 9.347656 -3.691406 6.90625 -6.320312 5.1875 -9.78125 C 3.476562 -13.25 2.625 -17.523438 2.625 -22.609375 C 2.625 -28.046875 3.644531 -32.65625 5.6875 -36.4375 C 7.738281 -40.21875 10.578125 -43.097656 14.203125 -45.078125 C 17.828125 -47.054688 22 -48.046875 26.71875 -48.046875 C 29.238281 -48.046875 31.644531 -47.773438 33.9375 -47.234375 C 36.238281 -46.691406 38.222656 -45.882812 39.890625 -44.8125 L 35.828125 -36.78125 C 34.523438 -37.675781 33.128906 -38.289062 31.640625 -38.625 C 30.160156 -38.96875 28.613281 -39.140625 27 -39.140625 C 22.90625 -39.140625 19.664062 -37.898438 17.28125 -35.421875 C 14.894531 -32.953125 13.703125 -29.285156 13.703125 -24.421875 C 13.703125 -23.617188 13.710938 -22.722656 13.734375 -21.734375 C 13.753906 -20.742188 13.878906 -19.753906 14.109375 -18.765625 L 11.0625 -21.59375 C 11.914062 -23.351562 13.019531 -24.828125 14.375 -26.015625 C 15.726562 -27.203125 17.335938 -28.097656 19.203125 -28.703125 C 21.066406 -29.316406 23.125 -29.625 25.375 -29.625 C 28.4375 -29.625 31.179688 -29.015625 33.609375 -27.796875 C 36.035156 -26.585938 37.976562 -24.878906 39.4375 -22.671875 C 40.90625 -20.472656 41.640625 -17.882812 41.640625 -14.90625 C 41.640625 -11.71875 40.835938 -8.941406 39.234375 -6.578125 C 37.640625 -4.210938 35.503906 -2.390625 32.828125 -1.109375 C 30.148438 0.171875 27.125 0.8125 23.75 0.8125 Z M 23.140625 -7.359375 C 24.671875 -7.359375 26.03125 -7.640625 27.21875 -8.203125 C 28.414062 -8.765625 29.351562 -9.582031 30.03125 -10.65625 C 30.707031 -11.738281 31.046875 -12.976562 31.046875 -14.375 C 31.046875 -16.53125 30.3125 -18.25 28.84375 -19.53125 C 27.382812 -20.8125 25.441406 -21.453125 23.015625 -21.453125 C 21.390625 -21.453125 19.96875 -21.148438 18.75 -20.546875 C 17.539062 -19.941406 16.585938 -19.109375 15.890625 -18.046875 C 15.191406 -16.992188 14.84375 -15.769531 14.84375 -14.375 C 14.84375 -13.019531 15.179688 -11.8125 15.859375 -10.75 C 16.535156 -9.695312 17.476562 -8.867188 18.6875 -8.265625 C 19.90625 -7.660156 21.390625 -7.359375 23.140625 -7.359375 Z M 23.140625 -7.359375 "/></g></g></g><g fill="#000000" fill-opacity="1"><g transform="translate(93.213432, 63.864084)"><g><path d="M 22.875 0.8125 C 19.007812 0.8125 15.546875 -0.140625 12.484375 -2.046875 C 9.421875 -3.960938 7.007812 -6.742188 5.25 -10.390625 C 3.5 -14.035156 2.625 -18.445312 2.625 -23.625 C 2.625 -28.789062 3.5 -33.195312 5.25 -36.84375 C 7.007812 -40.488281 9.421875 -43.265625 12.484375 -45.171875 C 15.546875 -47.085938 19.007812 -48.046875 22.875 -48.046875 C 26.789062 -48.046875 30.265625 -47.085938 33.296875 -45.171875 C 36.335938 -43.265625 38.734375 -40.488281 40.484375 -36.84375 C 42.242188 -33.195312 43.125 -28.789062 43.125 -23.625 C 43.125 -18.445312 42.242188 -14.035156 40.484375 -10.390625 C 38.734375 -6.742188 36.335938 -3.960938 33.296875 -2.046875 C 30.265625 -0.140625 26.789062 0.8125 22.875 0.8125 Z M 22.875 -8.4375 C 24.71875 -8.4375 26.328125 -8.953125 27.703125 -9.984375 C 29.078125 -11.023438 30.15625 -12.664062 30.9375 -14.90625 C 31.726562 -17.15625 32.125 -20.0625 32.125 -23.625 C 32.125 -27.175781 31.726562 -30.078125 30.9375 -32.328125 C 30.15625 -34.578125 29.078125 -36.21875 27.703125 -37.25 C 26.328125 -38.28125 24.71875 -38.796875 22.875 -38.796875 C 21.070312 -38.796875 19.484375 -38.28125 18.109375 -37.25 C 16.742188 -36.21875 15.664062 -34.578125 14.875 -32.328125 C 14.09375 -30.078125 13.703125 -27.175781 13.703125 -23.625 C 13.703125 -20.0625 14.09375 -17.15625 14.875 -14.90625 C 15.664062 -12.664062 16.742188 -11.023438 18.109375 -9.984375 C 19.484375 -8.953125 21.070312 -8.4375 22.875 -8.4375 Z M 22.875 -8.4375 "/></g></g></g><g fill="#ffffff" fill-opacity="1"><g transform="translate(1.958706, 63.864084)"><g><path d="M 17.953125 0.8125 C 14.671875 0.8125 11.410156 0.375 8.171875 -0.5 C 4.929688 -1.382812 2.1875 -2.632812 -0.0625 -4.25 L 4.1875 -12.625 C 5.988281 -11.3125 8.078125 -10.273438 10.453125 -9.515625 C 12.835938 -8.753906 15.25 -8.375 17.6875 -8.375 C 20.425781 -8.375 22.582031 -8.910156 24.15625 -9.984375 C 25.726562 -11.066406 26.515625 -12.550781 26.515625 -14.4375 C 26.515625 -16.238281 25.816406 -17.65625 24.421875 -18.6875 C 23.035156 -19.726562 20.789062 -20.25 17.6875 -20.25 L 12.6875 -20.25 L 12.6875 -27.46875 L 25.84375 -42.375 L 27.0625 -38.46875 L 2.296875 -38.46875 L 2.296875 -47.234375 L 35.359375 -47.234375 L 35.359375 -40.15625 L 22.265625 -25.234375 L 16.734375 -28.40625 L 19.90625 -28.40625 C 25.707031 -28.40625 30.09375 -27.097656 33.0625 -24.484375 C 36.03125 -21.878906 37.515625 -18.53125 37.515625 -14.4375 C 37.515625 -11.78125 36.816406 -9.296875 35.421875 -6.984375 C 34.035156 -4.671875 31.898438 -2.789062 29.015625 -1.34375 C 26.140625 0.09375 22.453125 0.8125 17.953125 0.8125 Z M 17.953125 0.8125 "/></g></g></g><g fill="#ffffff" fill-opacity="1"><g transform="translate(41.906059, 63.864084)"><g><path d="M 23.75 0.8125 C 19.4375 0.8125 15.691406 -0.0859375 12.515625 -1.890625 C 9.347656 -3.691406 6.90625 -6.320312 5.1875 -9.78125 C 3.476562 -13.25 2.625 -17.523438 2.625 -22.609375 C 2.625 -28.046875 3.644531 -32.65625 5.6875 -36.4375 C 7.738281 -40.21875 10.578125 -43.097656 14.203125 -45.078125 C 17.828125 -47.054688 22 -48.046875 26.71875 -48.046875 C 29.238281 -48.046875 31.644531 -47.773438 33.9375 -47.234375 C 36.238281 -46.691406 38.222656 -45.882812 39.890625 -44.8125 L 35.828125 -36.78125 C 34.523438 -37.675781 33.128906 -38.289062 31.640625 -38.625 C 30.160156 -38.96875 28.613281 -39.140625 27 -39.140625 C 22.90625 -39.140625 19.664062 -37.898438 17.28125 -35.421875 C 14.894531 -32.953125 13.703125 -29.285156 13.703125 -24.421875 C 13.703125 -23.617188 13.710938 -22.722656 13.734375 -21.734375 C 13.753906 -20.742188 13.878906 -19.753906 14.109375 -18.765625 L 11.0625 -21.59375 C 11.914062 -23.351562 13.019531 -24.828125 14.375 -26.015625 C 15.726562 -27.203125 17.335938 -28.097656 19.203125 -28.703125 C 21.066406 -29.316406 23.125 -29.625 25.375 -29.625 C 28.4375 -29.625 31.179688 -29.015625 33.609375 -27.796875 C 36.035156 -26.585938 37.976562 -24.878906 39.4375 -22.671875 C 40.90625 -20.472656 41.640625 -17.882812 41.640625 -14.90625 C 41.640625 -11.71875 40.835938 -8.941406 39.234375 -6.578125 C 37.640625 -4.210938 35.503906 -2.390625 32.828125 -1.109375 C 30.148438 0.171875 27.125 0.8125 23.75 0.8125 Z M 23.140625 -7.359375 C 24.671875 -7.359375 26.03125 -7.640625 27.21875 -8.203125 C 28.414062 -8.765625 29.351562 -9.582031 30.03125 -10.65625 C 30.707031 -11.738281 31.046875 -12.976562 31.046875 -14.375 C 31.046875 -16.53125 30.3125 -18.25 28.84375 -19.53125 C 27.382812 -20.8125 25.441406 -21.453125 23.015625 -21.453125 C 21.390625 -21.453125 19.96875 -21.148438 18.75 -20.546875 C 17.539062 -19.941406 16.585938 -19.109375 15.890625 -18.046875 C 15.191406 -16.992188 14.84375 -15.769531 14.84375 -14.375 C 14.84375 -13.019531 15.179688 -11.8125 15.859375 -10.75 C 16.535156 -9.695312 17.476562 -8.867188 18.6875 -8.265625 C 19.90625 -7.660156 21.390625 -7.359375 23.140625 -7.359375 Z M 23.140625 -7.359375 "/></g></g></g><g fill="#ffffff" fill-opacity="1"><g transform="translate(84.889954, 63.864084)"><g><path d="M 22.875 0.8125 C 19.007812 0.8125 15.546875 -0.140625 12.484375 -2.046875 C 9.421875 -3.960938 7.007812 -6.742188 5.25 -10.390625 C 3.5 -14.035156 2.625 -18.445312 2.625 -23.625 C 2.625 -28.789062 3.5 -33.195312 5.25 -36.84375 C 7.007812 -40.488281 9.421875 -43.265625 12.484375 -45.171875 C 15.546875 -47.085938 19.007812 -48.046875 22.875 -48.046875 C 26.789062 -48.046875 30.265625 -47.085938 33.296875 -45.171875 C 36.335938 -43.265625 38.734375 -40.488281 40.484375 -36.84375 C 42.242188 -33.195312 43.125 -28.789062 43.125 -23.625 C 43.125 -18.445312 42.242188 -14.035156 40.484375 -10.390625 C 38.734375 -6.742188 36.335938 -3.960938 33.296875 -2.046875 C 30.265625 -0.140625 26.789062 0.8125 22.875 0.8125 Z M 22.875 -8.4375 C 24.71875 -8.4375 26.328125 -8.953125 27.703125 -9.984375 C 29.078125 -11.023438 30.15625 -12.664062 30.9375 -14.90625 C 31.726562 -17.15625 32.125 -20.0625 32.125 -23.625 C 32.125 -27.175781 31.726562 -30.078125 30.9375 -32.328125 C 30.15625 -34.578125 29.078125 -36.21875 27.703125 -37.25 C 26.328125 -38.28125 24.71875 -38.796875 22.875 -38.796875 C 21.070312 -38.796875 19.484375 -38.28125 18.109375 -37.25 C 16.742188 -36.21875 15.664062 -34.578125 14.875 -32.328125 C 14.09375 -30.078125 13.703125 -27.175781 13.703125 -23.625 C 13.703125 -20.0625 14.09375 -17.15625 14.875 -14.90625 C 15.664062 -12.664062 16.742188 -11.023438 18.109375 -9.984375 C 19.484375 -8.953125 21.070312 -8.4375 22.875 -8.4375 Z M 22.875 -8.4375 "/></g></g></g></g></g></svg>